<?xml version="1.0" encoding="utf-8"?>
<!-- Generator: Adobe Illustrator 17.1.0, SVG Export Plug-In . SVG Version: 6.00 Build 0)  -->
<!DOCTYPE svg PUBLIC "-//W3C//DTD SVG 1.1//EN" "http://www.w3.org/Graphics/SVG/1.1/DTD/svg11.dtd">
<svg version="1.1" id="Layer_1" xmlns="http://www.w3.org/2000/svg" xmlns:xlink="http://www.w3.org/1999/xlink" x="0px" y="0px"
	 viewBox="0 0 19 19" enable-background="new 0 0 19 19" xml:space="preserve">
<path fill-rule="evenodd" clip-rule="evenodd" fill="white" d="M17.7,19H2.3H1V3.2l2.7,0v1.5c0,0.4,0.3,0.7,0.7,0.7h0.9
	C5.7,5.4,6,5.1,6,4.7V3.2h1.1v1.5c0,0.4,0.3,0.7,0.7,0.7h0.9c0.4,0,0.7-0.3,0.7-0.7V3.2l1,0v1.5c0,0.4,0.3,0.7,0.7,0.7H12
	c0.4,0,0.7-0.3,0.7-0.7V3.2l1,0v1.5c0,0.4,0.3,0.7,0.7,0.7h0.9c0.4,0,0.7-0.3,0.7-0.7V3.2l0.4,0l2.5,0L19,19L17.7,19z M17.7,7.6H2.3
	v10.1h15.4V7.6z M5.7,8.4h0.4v1.4h2.3V8.4h0.4v1.4h2.4V8.4h0.4v1.4H14V8.4h0.4v1.4h2.1v0.4h-2.1v2.1h2.1v0.4h-2.1V15h2.1v0.4h-2.1
	v1.3H14v-1.3h-2.5v1.3h-0.4v-1.3H8.7v1.3H8.4v-1.3H6.1v1.3H5.7v-1.3H3.3V15h2.4v-2.3H3.3v-0.4h2.4v-2.1H3.3V9.8h2.4V8.4z M11.5,15
	H14v-2.3h-2.5V15z M11.5,12.3H14v-2.1h-2.5V12.3z M11.1,10.2H8.7v2.1h2.4V10.2z M8.7,15h2.4v-2.3H8.7V15z M6.1,15h2.3v-2.3H6.1V15z
	 M6.1,12.3h2.3v-2.1H6.1V12.3z M15.3,4.9h-0.9c-0.1,0-0.2-0.1-0.2-0.2V2.2c0-0.1,0.1-0.2,0.2-0.2h0.9c0.1,0,0.2,0.1,0.2,0.2v2.5
	C15.5,4.8,15.4,4.9,15.3,4.9z M12,4.9h-0.9c-0.1,0-0.2-0.1-0.2-0.2V2.2C11,2.1,11.1,2,11.2,2H12c0.1,0,0.2,0.1,0.2,0.2v2.5
	C12.2,4.8,12.1,4.9,12,4.9z M8.7,4.9H7.8c-0.1,0-0.2-0.1-0.2-0.2V2.2C7.7,2.1,7.7,2,7.8,2h0.9c0.1,0,0.2,0.1,0.2,0.2v2.5
	C8.9,4.8,8.8,4.9,8.7,4.9z M5.3,4.9H4.5c-0.1,0-0.2-0.1-0.2-0.2V2.2C4.3,2.1,4.4,2,4.5,2h0.9c0.1,0,0.2,0.1,0.2,0.2v2.5
	C5.5,4.8,5.4,4.9,5.3,4.9z"/>
</svg>
